<svg width="337" height="337" viewBox="0 0 337 337" fill="none" xmlns="http://www.w3.org/2000/svg">
<path d="M301.435 148.261C311.047 168.911 316.965 191.087 318.916 213.782L296.009 214.809C294.37 197.687 290.272 180.892 283.842 164.941L301.435 148.261Z" fill="#CC66A1"/>
<path d="M274.188 114.615C275.137 114.5 276.089 114.443 277.043 114.445C291.242 114.445 302.75 125.953 302.75 140.15C302.75 154.346 291.242 165.854 277.043 165.854C276.089 165.856 275.137 165.799 274.188 165.684V114.615Z" fill="#804169"/>
<path d="M297.037 273.589C295.523 273.592 294.069 272.99 293 271.916L281.575 260.489C279.656 258.569 279.355 255.562 280.856 253.298L292.56 235.642C294.31 233.03 297.842 232.321 300.463 234.057C303.083 235.796 303.807 239.324 302.081 241.954L292.942 255.714L301.064 263.838C302.696 265.47 303.187 267.923 302.306 270.057C301.425 272.19 299.346 273.584 297.037 273.589Z" fill="#D1D4D1"/>
<path d="M319.886 273.589C317.577 273.587 315.495 272.196 314.612 270.062C313.728 267.928 314.214 265.47 315.848 263.838L323.965 255.719L314.826 242.012C313.636 240.312 313.461 238.103 314.368 236.238C315.273 234.371 317.119 233.145 319.19 233.03C321.261 232.918 323.23 233.932 324.336 235.687L336.048 253.282C337.549 255.547 337.249 258.556 335.327 260.478L323.902 271.903C322.841 272.977 321.397 273.584 319.886 273.589Z" fill="#D1D4D1"/>
<path d="M297.037 273.589C295.523 273.592 294.069 272.99 293 271.916L281.575 260.489C279.656 258.569 279.355 255.562 280.856 253.298L292.56 235.642C294.31 233.03 297.842 232.321 300.463 234.057C303.083 235.796 303.807 239.324 302.081 241.954L292.942 255.714L301.064 263.838C302.696 265.47 303.187 267.923 302.306 270.057C301.425 272.19 299.346 273.584 297.037 273.589Z" fill="#D1D4D1"/>
<path d="M319.886 273.589C317.577 273.587 315.495 272.196 314.612 270.062C313.728 267.928 314.214 265.47 315.848 263.838L323.965 255.719L314.826 242.012C313.636 240.312 313.461 238.103 314.368 236.238C315.273 234.371 317.119 233.145 319.19 233.03C321.261 232.918 323.23 233.932 324.336 235.687L336.048 253.282C337.549 255.547 337.249 258.556 335.327 260.478L323.902 271.903C322.841 272.977 321.397 273.584 319.886 273.589Z" fill="#D1D4D1"/>
<path d="M325.599 225.834C325.599 235.297 317.927 242.972 308.461 242.972C298.998 242.972 291.326 235.297 291.326 225.834C291.326 216.368 298.998 208.696 308.461 208.696C317.927 208.696 325.599 216.368 325.599 225.834Z" fill="#804169"/>
<path d="M35.5857 148.261C25.9761 168.911 20.0586 191.087 18.1079 213.782L41.0142 214.809C42.6538 197.687 46.7513 180.892 53.1813 164.941L35.5857 148.261Z" fill="#CC66A1"/>
<path d="M62.8326 165.684C61.886 165.799 60.9316 165.856 59.9772 165.854C45.781 165.854 34.2729 154.346 34.2729 140.15C34.2729 125.953 45.781 114.445 59.9772 114.445C60.9316 114.443 61.886 114.5 62.8326 114.615V165.684Z" fill="#804169"/>
<path d="M39.9843 273.589C37.6753 273.587 35.5939 272.196 34.71 270.062C33.8236 267.928 34.3126 265.47 35.9469 263.838L44.0687 255.714L34.9297 241.954C33.2039 239.324 33.9282 235.796 36.5483 234.057C39.171 232.321 42.7037 233.03 44.4531 235.642L56.1573 253.298C57.6556 255.562 57.3549 258.569 55.4382 260.489L44.0112 271.916C42.9469 272.988 41.4957 273.589 39.9843 273.589Z" fill="#D1D4D1"/>
<path d="M17.1352 273.589C15.6212 273.592 14.1647 272.99 13.0979 271.916L1.67348 260.489C-0.24846 258.567 -0.54917 255.557 0.951769 253.293L12.6638 235.7C13.7699 233.945 15.7389 232.928 17.8099 233.043C19.8809 233.155 21.727 234.384 22.6317 236.249C23.5391 238.113 23.3639 240.323 22.1741 242.022L13.0351 255.732L21.1517 263.849C22.7729 265.481 23.2593 267.925 22.3807 270.054C21.5047 272.18 19.4363 273.574 17.1352 273.589Z" fill="#D1D4D1"/>
<path d="M39.9843 273.589C37.6753 273.587 35.5939 272.196 34.71 270.062C33.8236 267.928 34.3126 265.47 35.9469 263.838L44.0687 255.714L34.9297 241.954C33.2039 239.324 33.9282 235.796 36.5483 234.057C39.171 232.321 42.7037 233.03 44.4531 235.642L56.1573 253.298C57.6556 255.562 57.3549 258.569 55.4382 260.489L44.0112 271.916C42.9469 272.988 41.4957 273.589 39.9843 273.589Z" fill="#D1D4D1"/>
<path d="M17.1352 273.589C15.6212 273.592 14.1647 272.99 13.0979 271.916L1.67348 260.489C-0.24846 258.567 -0.54917 255.557 0.951769 253.293L12.6638 235.7C13.7699 233.945 15.7389 232.928 17.8099 233.043C19.8809 233.155 21.727 234.384 22.6317 236.249C23.5391 238.113 23.3639 240.323 22.1741 242.022L13.0351 255.732L21.1517 263.849C22.7729 265.481 23.2593 267.925 22.3807 270.054C21.5047 272.18 19.4363 273.574 17.1352 273.589Z" fill="#D1D4D1"/>
<path d="M45.6975 225.834C45.6975 235.297 38.0255 242.972 28.5596 242.972C19.0964 242.972 11.4243 235.297 11.4243 225.834C11.4243 216.368 19.0964 208.696 28.5596 208.696C38.0255 208.696 45.6975 216.368 45.6975 225.834Z" fill="#804169"/>
<path d="M122.813 267.248H145.662V191.085H77.1152V267.248H99.964" fill="#804169"/>
<path d="M237.06 267.248H259.908V191.085H191.359V267.248H214.211" fill="#804169"/>
<path d="M59.9775 165.854V188.703C59.9775 198.168 67.6496 205.84 77.1154 205.84H259.908C269.372 205.84 277.044 198.168 277.044 188.703V114.445C277.044 54.5228 228.433 23.0475 168.511 23.0475C108.591 23.0475 59.9775 54.5228 59.9775 114.445V188.703" fill="#CC66A1"/>
<path d="M234.259 76.2288C229.55 71.4148 224.16 67.3173 218.267 64.0618C203.035 55.6837 185.894 51.3927 168.511 51.6098C124.356 51.6098 88.5399 77.199 88.5399 108.732C88.0483 120.316 91.2933 131.748 97.7939 141.35C99.5668 143.821 101.617 146.083 103.905 148.088C115.902 159.058 136.123 165.854 168.511 165.854C231.346 165.854 248.484 140.265 248.484 108.732C248.217 96.4445 243.105 84.7612 234.259 76.2288Z" fill="#90BAE1"/>
<path d="M218.267 64.0618C147.09 78.6842 112.016 119.414 97.7939 141.35C91.2933 131.748 88.0483 120.316 88.5399 108.732C88.5399 77.199 124.356 51.6098 168.511 51.6098C185.894 51.3927 203.035 55.6837 218.267 64.0618Z" fill="#B0D3F0"/>
<path d="M134.238 125.87C128.124 126.048 122.209 123.697 117.884 119.374C113.559 115.049 111.211 109.132 111.389 103.018C111.378 99.8647 113.93 97.2995 117.084 97.2891C120.238 97.2812 122.803 99.8307 122.813 102.984C122.609 106.078 123.744 109.106 125.933 111.3C128.119 113.493 131.147 114.639 134.238 114.445C137.326 114.644 140.349 113.507 142.537 111.318C144.723 109.129 145.863 106.106 145.662 103.018C145.662 99.8647 148.219 97.3074 151.376 97.3074C154.529 97.3074 157.086 99.8647 157.086 103.018C157.267 109.132 154.916 115.049 150.591 119.374C146.266 123.697 140.351 126.048 134.238 125.87Z" fill="#3D324C"/>
<path d="M202.786 125.87C196.673 126.048 190.755 123.697 186.43 119.374C182.108 115.049 179.757 109.132 179.935 103.018C179.927 99.8647 182.476 97.2995 185.63 97.2891C188.786 97.2812 191.351 99.8307 191.359 102.984C191.354 107.066 193.527 110.842 197.057 112.887C200.59 114.934 204.943 114.94 208.481 112.905C212.019 110.868 214.203 107.1 214.21 103.018C214.21 99.8647 216.768 97.3074 219.921 97.3074C223.078 97.3074 225.635 99.8647 225.635 103.018C225.813 109.132 223.462 115.049 219.14 119.374C214.815 123.697 208.897 126.048 202.786 125.87Z" fill="#3D324C"/>
<path d="M82.8261 188.703C79.6726 188.703 77.1152 186.145 77.1152 182.992V171.567C77.1152 168.411 79.6726 165.854 82.8261 165.854C85.9823 165.854 88.5396 168.411 88.5396 171.567V182.992C88.5396 186.145 85.9823 188.703 82.8261 188.703Z" fill="#804169"/>
<path d="M105.675 188.703C102.521 188.703 99.9639 186.145 99.9639 182.992V177.278C99.9639 174.125 102.521 171.567 105.675 171.567C108.831 171.567 111.388 174.125 111.388 177.278V182.992C111.388 186.145 108.831 188.703 105.675 188.703Z" fill="#804169"/>
<path d="M254.195 188.703C251.041 188.703 248.484 186.145 248.484 182.992V171.567C248.484 168.411 251.041 165.854 254.195 165.854C257.351 165.854 259.908 168.411 259.908 171.567V182.992C259.908 186.145 257.351 188.703 254.195 188.703Z" fill="#804169"/>
<path d="M231.346 188.703C228.193 188.703 225.635 186.145 225.635 182.992V177.278C225.635 174.125 228.193 171.567 231.346 171.567C234.502 171.567 237.06 174.125 237.06 177.278V182.992C237.06 186.145 234.502 188.703 231.346 188.703Z" fill="#804169"/>
<path d="M122.813 245.827H145.662V302.949H77.1152V245.827H99.964" fill="#CC66A1"/>
<path d="M122.813 245.827C122.813 252.137 117.698 257.252 111.389 257.252C105.079 257.252 99.9644 252.137 99.9644 245.827C99.9644 239.517 105.079 234.403 111.389 234.403C117.698 234.403 122.813 239.517 122.813 245.827Z" fill="#3D324C"/>
<path d="M237.06 245.827H259.908V302.949H191.359V245.827H214.211" fill="#CC66A1"/>
<path d="M237.06 245.827C237.06 252.137 231.945 257.252 225.635 257.252C219.326 257.252 214.211 252.137 214.211 245.827C214.211 239.517 219.326 234.403 225.635 234.403C231.945 234.403 237.06 239.517 237.06 245.827Z" fill="#3D324C"/>
<path d="M77.1153 285.814H145.662C151.971 285.814 157.086 290.929 157.086 297.238V308.663C157.086 311.816 154.529 314.374 151.375 314.374H71.4018C68.2483 314.374 65.6909 311.816 65.6909 308.663V297.238C65.6909 290.929 70.8056 285.814 77.1153 285.814Z" fill="#3D324C"/>
<path d="M191.359 285.814H259.908C266.218 285.814 271.333 290.929 271.333 297.238V308.663C271.333 311.816 268.776 314.374 265.619 314.374H185.649C182.492 314.374 179.935 311.816 179.935 308.663V297.238C179.935 290.929 185.052 285.814 191.359 285.814Z" fill="#3D324C"/>
</svg>
