<svg width="811" height="103" viewBox="0 0 811 103" fill="none" xmlns="http://www.w3.org/2000/svg">
<path d="M41.52 102.728C33.936 102.728 26.976 101.576 20.64 99.272C14.4 96.872 9.408 93.368 5.664 88.76C1.92 84.152 0.0480005 78.584 0.0480005 72.056L0.192 68.888H21.36L21.216 71.192C21.216 75.416 23.088 78.776 26.832 81.272C30.576 83.768 35.808 85.016 42.528 85.016C49.632 85.016 54.768 84.104 57.936 82.28C61.104 80.36 62.688 77.816 62.688 74.648C62.688 71.864 61.632 69.56 59.52 67.736C57.504 65.816 54.912 64.328 51.744 63.272C48.672 62.12 44.4 60.776 38.928 59.24C31.152 57.032 24.864 54.92 20.064 52.904C15.264 50.888 11.136 47.912 7.68 43.976C4.224 39.944 2.496 34.664 2.496 28.136C2.496 19.112 6.144 12.248 13.44 7.54399C20.736 2.84 30.432 0.487998 42.528 0.487998C53.952 0.487998 63.264 2.936 70.464 7.832C77.76 12.632 81.408 19.88 81.408 29.576V31.304H60.672V30.008C60.672 26.36 58.992 23.48 55.632 21.368C52.368 19.256 47.904 18.2 42.24 18.2C36.192 18.2 31.536 19.016 28.272 20.648C25.104 22.28 23.52 24.536 23.52 27.416C23.52 29.624 24.48 31.544 26.4 33.176C28.32 34.712 30.72 36.008 33.6 37.064C36.48 38.024 40.56 39.224 45.84 40.664C53.712 42.776 60.144 44.888 65.136 47C70.224 49.016 74.592 52.04 78.24 56.072C81.888 60.104 83.712 65.384 83.712 71.912C83.712 82.472 79.92 90.248 72.336 95.24C64.848 100.232 54.576 102.728 41.52 102.728ZM104.015 2.21599H151.103C162.143 2.21599 170.447 5.04799 176.015 10.712C181.583 16.28 184.367 24.2 184.367 34.472C184.367 44.744 181.439 52.76 175.583 58.52C169.823 64.184 161.183 67.016 149.663 67.016H124.895V101H104.015V2.21599ZM149.231 49.304C153.743 49.304 157.199 48.008 159.599 45.416C161.999 42.824 163.199 39.176 163.199 34.472C163.199 29.864 161.999 26.312 159.599 23.816C157.199 21.224 153.743 19.928 149.231 19.928H124.895V49.304H149.231ZM222.926 2.21599H249.134L287.726 101H264.974L257.918 82.136H212.99L205.934 101H184.334L222.926 2.21599ZM251.294 64.712L241.934 39.656C240.782 36.584 238.718 30.104 235.742 20.216H235.022C232.046 30.104 229.982 36.584 228.83 39.656L219.47 64.712H251.294ZM346.144 102.728C314.272 102.728 298.336 85.688 298.336 51.608C298.336 34.52 302.512 21.752 310.864 13.304C319.216 4.76 330.976 0.487998 346.144 0.487998C354.496 0.487998 361.984 1.928 368.608 4.80799C375.328 7.59199 380.608 11.912 384.448 17.768C388.384 23.528 390.352 30.584 390.352 38.936H368.896C368.896 32.504 366.832 27.464 362.704 23.816C358.576 20.072 353.2 18.2 346.576 18.2C337.552 18.2 330.832 20.888 326.416 26.264C322 31.64 319.792 39.368 319.792 49.448V53.768C319.792 74.6 328.72 85.016 346.576 85.016C353.584 85.016 359.152 83.192 363.28 79.544C367.504 75.896 369.616 70.856 369.616 64.424H390.352C390.352 72.872 388.432 79.976 384.592 85.736C380.752 91.4 375.52 95.672 368.896 98.552C362.272 101.336 354.688 102.728 346.144 102.728ZM410.178 2.21599H487.794V19.928H431.058V41.672H481.458V59.384H431.058V83.288H488.658V101H410.178V2.21599ZM510.545 2.21599H567.137C572.321 2.21599 577.025 3.27199 581.249 5.384C585.473 7.4 588.785 10.28 591.185 14.024C593.585 17.672 594.785 21.896 594.785 26.696C594.785 32.168 593.249 36.92 590.177 40.952C587.201 44.888 583.361 47.624 578.657 49.16V49.736C584.225 50.792 588.737 53.528 592.193 57.944C595.745 62.264 597.521 67.4 597.521 73.352C597.521 82.28 594.641 89.144 588.881 93.944C583.217 98.648 575.969 101 567.137 101H510.545V2.21599ZM561.233 41.672C565.073 41.672 568.049 40.712 570.161 38.792C572.273 36.776 573.329 34.232 573.329 31.16C573.329 27.512 572.321 24.728 570.305 22.808C568.385 20.888 565.697 19.928 562.241 19.928H531.569V41.672H561.233ZM563.681 83.288C567.329 83.288 570.305 82.232 572.609 80.12C574.913 78.008 576.065 74.984 576.065 71.048C576.065 67.496 574.913 64.616 572.609 62.408C570.305 60.2 566.945 59.096 562.529 59.096H531.569V83.288H563.681ZM665.155 102.728C649.315 102.728 637.027 98.504 628.291 90.056C619.555 81.512 615.187 68.696 615.187 51.608C615.187 34.52 619.555 21.752 628.291 13.304C637.027 4.76 649.315 0.487998 665.155 0.487998C681.091 0.487998 693.427 4.76 702.163 13.304C710.899 21.752 715.267 34.52 715.267 51.608C715.267 68.696 710.899 81.512 702.163 90.056C693.427 98.504 681.091 102.728 665.155 102.728ZM665.155 85.016C674.563 85.016 681.667 82.328 686.467 76.952C691.363 71.48 693.811 63.752 693.811 53.768V49.448C693.811 39.464 691.363 31.784 686.467 26.408C681.667 20.936 674.563 18.2 665.155 18.2C655.747 18.2 648.643 20.936 643.843 26.408C639.043 31.784 636.643 39.464 636.643 49.448V53.768C636.643 63.752 639.043 71.48 643.843 76.952C648.643 82.328 655.747 85.016 665.155 85.016ZM759.089 20.216H728.561V2.21599H810.497V20.216H779.969V101H759.089V20.216Z" fill="white"/>
</svg>
